<?xml version="1.0" encoding="UTF-8"?>
<svg width="24px" height="22px" viewBox="0 0 24 22" version="1.1" xmlns="http://www.w3.org/2000/svg" xmlns:xlink="http://www.w3.org/1999/xlink">
    <!-- Generator: Sketch 62 (91390) - https://sketch.com -->
    <title>icn</title>
    <desc>Created with Sketch.</desc>
    <g id="Symbols" stroke="none" stroke-width="1" fill="none" fill-rule="evenodd">
        <g id="btn-/-Hover" transform="translate(-20.000000, -16.000000)" fill="#FFFFFF">
            <g id="icn-/-white" transform="translate(19.000000, 16.000000)">
                <g id="icn-2" transform="translate(-1.000000, 0.000000)">
                    <path d="M10.361,11.216 L21.464,0 L26,4.534 L14.898,15.752 L9,17 L10.361,11.216 Z M11.667,14.392 L13.897,13.92 L23.178,4.542 L21.471,2.835 L12.178,12.223 L11.667,14.392 L11.667,14.392 Z" id="icn" fill-rule="nonzero"></path>
                    <path d="M15,20 L15,22 L9,22 L9,20 L15,20 Z M4,18 L4,20 L7,20 L7,22 L2,22 L2,18 L4,18 Z M22,18 L22,22 L17,22 L17,20 L20,20 L20,18 L22,18 Z M22,11.427 L22,16 L20,16 L20,13.45 L22,11.427 Z M4,12 L4,16 L2,16 L2,12 L4,12 Z M7,6 L7,8 L4,8 L4,10 L2,10 L2,6 L7,6 Z M12.721,6 L10.743,8 L9,8 L9,6 L12.721,6 Z" id="Combined-Shape" opacity="0.704976"></path>
                </g>
            </g>
        </g>
    </g>
</svg>